<svg xmlns="http://www.w3.org/2000/svg" width="250" height="250" fill="none" viewBox="0 0 250 250">
<!-- SVG created with Arrow, by QuiverAI (https://quiver.ai) -->
  <path d="m243.9 15.63-59.97 32.08-3.02 3.41-3.97 2.27-7.91 2.8 2.7 3.01 9.22 5.71 1.29 2.5v10.31l16.56 9.4-0.55 15.29-6.02 11.95-7.5 5.9-12.89 8.1-0.76 3.76 12.85 0.44 29.5 0.77 30.31-15.22 0.16-102.5z" fill="url(#paint0_linear_114_276)"/>
  <path d="m6.12 135.6 90.53-47.71v6.49l-31.69 16.81-11.85 12.89-1.15 13.51 15.65 19.5 1.7 7.79 6.4-2 11-0.7 18.35-3.35 15.65-6.74 64.9-34.26v29.76l-163.9 85.5h-15.59v-97.49z" fill="url(#paint1_linear_114_276)"/>
  <path d="m243.6 41.26v7.15m-3-5.4v6.9m-3-5v6.35m-3-4.6v6.1m-3-4.85v6.35m-3-5v6.35m-3-5.1v6.35m-3-5.1v5.35" opacity=".5" stroke="#B7F9E0" stroke-linecap="round" stroke-width="2"/>
  <path d="m241.7 104.9v5.1m-3-3.25v5.1m-3-3.25v5.1m-3-3.25v5.1m-3-3.25v5.1m-3-3.25v5.1m-3-3.25v5.1m-3-3.25v5.1m-3-3.25v5.1m-3-3.25v5.1" opacity=".5" stroke="#B7F9E0" stroke-linecap="round" stroke-width="2"/>
  <path d="m188.7 58.76v5.1m3-6.95v5.1m3-6.95v5.1m3-6.35v5.1m3-6.35v5.1m3-6.95v5.1" opacity=".5" stroke="#B7F9E0" stroke-linecap="round" stroke-width="2"/>
  <path d="m6.61 151.1v5.1m3-6.95v5.1m3-6.45v5.1m3-6.35v5.1m3-6.95v5.1m3-6.35v5.1m3-6.95v5.1m3-6.95v5.1m3-6.35v5.1m3-15v1.4m3 6.65v5.1m3-6.35v5.1" opacity=".7" stroke="#B7F9E0" stroke-linecap="round" stroke-width="2"/>
  <path d="m163.2 144.9v4.7m3-6.2v4.7m3-6.2v4.7m3-6.6v4.7m3-6.2v4.7" opacity=".5" stroke="#B7F9E0" stroke-linecap="round" stroke-width="2"/>
  <path d="m11.61 213.6v1.4m13.5-7.9v1.4m9 2.7v2.8m3-4.3v2.8m4.5-5.4v4.1m3-5.6v4.1m4-6.6v4.7m3-6.6v4.7m3-6.2v4m3-5.9v4.7" opacity=".5" stroke="#B7F9E0" stroke-linecap="round" stroke-width="2"/>
  <path d="m74.11 190.7v0.7m-3 0.8v0.7m-3-5.8v2.8m-3-1.3v2.8m-3-1.7v4.1m-3-2.6v4m-3-2.5v4m-3-2.5v4m-3-2.6v3.4" opacity=".5" stroke="#B7F9E0" stroke-linecap="round" stroke-width="2"/>
  <path d="m89.11 183.2v4m3-6.5v4.7m3-6.2v4.7m3-6.2v4.7m3-6.2v4.7m3-6.2v4.7" opacity=".5" stroke="#B7F9E0" stroke-linecap="round" stroke-width="2"/>
  <path d="m72.61 182.1v4m3-5.5v4m3-5.5v4m3-5.5v4m3-5.5v4m3-5.5v4m3-5.5v4" opacity=".5" stroke="#B7F9E0" stroke-linecap="round" stroke-width="2"/>
  <path d="m48.61 174.6v4.7m3-6.2v4.7m3-6.2v4.7m3-6.2v4.7" opacity=".5" stroke="#B7F9E0" stroke-linecap="round" stroke-width="2"/>
  <path d="m33.11 180.7v4.7m3-6.2v4.7m3-6.2v4.7m3-6.2v4.7m3-6.2v4.7" opacity=".5" stroke="#B7F9E0" stroke-linecap="round" stroke-width="2"/>
  <path d="m18.11 188.6v4.7m3-6.2v4.7m3-6.2v4.7m3-6.2v4.7m3-6.2v4.7" opacity=".5" stroke="#B7F9E0" stroke-linecap="round" stroke-width="2"/>
  <path d="m8.11 194.1v4m3-6v4.7" opacity=".5" stroke="#B7F9E0" stroke-linecap="round" stroke-width="2"/>
  <path d="m7.61 181.6v1.4" opacity=".5" stroke="#B7F9E0" stroke-linecap="round" stroke-width="2"/>
  <path d="m113.6 174.7 21-10.5" opacity=".5" stroke="#77E8D2" stroke-linecap="round" stroke-width="2"/>
  <path d="m120.1 164.7 29.5-16.5" opacity=".5" stroke="#49BFD0" stroke-linecap="round" stroke-width="2"/>
  <path d="m149.6 154.2 0.5-0.5" opacity=".5" stroke="#77E8D2" stroke-linecap="round" stroke-width="2"/>
  <path d="m167.1 136.2 22.5-11" opacity=".5" stroke="#49BFD0" stroke-linecap="round" stroke-width="2"/>
  <path d="m200.1 128.2 0.5-0.5" opacity=".5" stroke="#77E8D2" stroke-linecap="round" stroke-width="2"/>
  <path d="m216.1 103.2 0.5-0.5" opacity=".5" stroke="#77E8D2" stroke-linecap="round" stroke-width="2"/>
  <path d="m216.1 103.2-25 14" opacity=".5" stroke="#77E8D2" stroke-linecap="round" stroke-width="2"/>
  <path d="m227.6 97.22 0.5-0.5" opacity=".5" stroke="#77E8D2" stroke-linecap="round" stroke-width="2"/>
  <path d="m211.1 95.22 1.5-1" opacity=".5" stroke="#77E8D2" stroke-linecap="round" stroke-width="2"/>
  <path d="m225.1 89.72 1.5-1" opacity=".5" stroke="#77E8D2" stroke-linecap="round" stroke-width="2"/>
  <path d="m226.1 80.22 13.5-7" opacity=".5" stroke="#77E8D2" stroke-linecap="round" stroke-width="2"/>
  <path d="m234.6 83.72 1.5-1" opacity=".5" stroke="#B7F9E0" stroke-linecap="round" stroke-width="2"/>
  <path d="m216.1 38.22 14.5-1" opacity=".5" stroke="#77E8D2" stroke-linecap="round" stroke-width="1.5"/>
  <path d="m202.6 45.22v1.5" opacity=".5" stroke="#B7F9E0" stroke-linecap="round" stroke-width="2"/>
  <path d="m214.1 46.22 14.5-7" opacity=".5" stroke="#77E8D2" stroke-linecap="round" stroke-width="1.5"/>
  <path d="m184.6 75.22 25-13" opacity=".5" stroke="#77E8D2" stroke-linecap="round" stroke-width="2"/>
  <path d="m208.1 71.72 29.5-14.5" opacity=".5" stroke="#77E8D2" stroke-linecap="round" stroke-width="1.5"/>
  <path d="m198.6 76.22 1 0.5" opacity=".5" stroke="#77E8D2" stroke-linecap="round" stroke-width="2"/>
  <path d="m206.6 89.72 1-0.5" opacity=".5" stroke="#77E8D2" stroke-linecap="round" stroke-width="2"/>
  <path d="m213.6 85.22 3-1.5" opacity=".5" stroke="#77E8D2" stroke-linecap="round" stroke-width="1.5"/>
  <path d="m221.1 83.22 1-0.5" opacity=".5" stroke="#77E8D2" stroke-linecap="round" stroke-width="2"/>
  <path d="m10.11 171.2 12-7" opacity=".5" stroke="#2874A6" stroke-linecap="round" stroke-width="2"/>
  <path d="m66.11 176.2 17-7.5" opacity=".5" stroke="#2874A6" stroke-linecap="round" stroke-width="2"/>
  <path d="m102.6 169.7 1-0.5" opacity=".5" stroke="#77E8D2" stroke-linecap="round" stroke-width="2"/>
  <path d="m6.61 206.1 37-18.5" opacity=".5" stroke="#2874A6" stroke-linecap="round" stroke-width="1.5"/>
  <path d="m149.2 199.1h-71.75c-4.87 0-7 3.29-7 7 0 4.29 2.75 6.6 6.5 6.6h72.25c5.1 0 6.9-4 6.9-6.81 0-4-2.4-6.79-6.9-6.79z" fill="#FEFFFE" stroke="#12283C" stroke-miterlimit="10" stroke-width="2.5"/>
  <path d="m125.1 202.1h-47c-3.2 0-4.7 2.1-4.7 4 0 2.5 1.3 4.1 4.2 4.1h47.5c2.8 0 4-2 4-4 0-2.21-1.4-4.1-4-4.1z" fill="url(#paint2_linear_114_276)"/>
  <path d="m243.9 198.9-26.77 16.5c-5.6 2.8-11.4 2-16.3-1l-6.6-4.1c-2.5-1.3-4.8-1.5-7.6-0.9-8.6 2.2-16.6-0.5-17.9-5.5-0.5-2 1.2-6.8 0-8l-8.3-5.2c-2.6-1.6-3.2-4.5-1.3-7.4l2-5.6-0.4-2.5c-0.3-2.1 0.8-4.1 2.7-5.1l20.5-11.86 2.7-13.81c2.7-8.29 11.3-9.4 21.3-9.4s20.8 3.81 21.8 9.81l1 8.4 9 5c2.4 1.1 4 3 4 5.69l0.17 34.97z" fill="#94A6B0" opacity=".3"/>
  <path d="m242 163.8v31.5l-26.3 14.5c-5.6 2.8-11.4 1.19-14.5-0.91l-6.6-3.59c-2.5-1.31-4.8-1.5-7.6-0.91-8.6 1.6-14.4 0-14.8-4.59v-6l-8.8-5.2c-2.6-1.61-2.7-2.5-2.7-5.4v-8.1c-0.3-2.11 0.8-4.11 2.7-5.11l20.5-10.79 2.2-1v-12.5c0-7 10.2-11 21.8-11s21.8 4 21.8 11v10.5l10 4c1.7 0.79 2.3 1.9 2.3 3.6z" fill="url(#paint3_linear_114_276)" stroke="#12283C" stroke-miterlimit="10" stroke-width="2.5"/>
  <path d="m162.1 177.6 10.5 5.7c2 1 2.1 2.9 0.5 4.4-2.3 2.19-1.4 6.19 4.6 6.9 3.8 0.39 6.9-1 12.2 0.29 5.1 1.21 9.3 5 15.8 6 3.4 0.5 6.4 0 9.5-1.69l26.5-12.1v8.5l-26 13.2c-4.6 2.09-10 1.5-14.5-1.41l-6.6-3.59c-2.5-1.31-4.8-1.5-7.6-0.91-8.6 1.6-14.4 0.21-14.8-4.4v-5.1l-8.3-5.19c-2.2-1.31-2.8-2.21-2.8-4.5l1-6.1z" fill="#A5785D" stroke="#12283C" stroke-miterlimit="10" stroke-width="2"/>
  <path d="m207.9 186.7c10.93 0 20.3-5 20.3-9.6v-31.9c0-4.6-9.37-8.5-20.3-8.5-10.94 0-19.3 3.9-19.3 8.5v31.9c0 4.6 8.36 9.6 19.3 9.6z" fill="url(#paint4_linear_114_276)" stroke="#12283C" stroke-miterlimit="10" stroke-width="2.5"/>
  <path d="m207.9 153.7c10.38 0 19.3-4.01 19.3-8 0-4-8.92-8.5-19.3-8.5-10.39 0-18.3 4.5-18.3 8.5 0 3.99 7.91 8 18.3 8z" fill="#E1E8EF" stroke="#12283C" stroke-miterlimit="10" stroke-width="1.5"/>
  <path d="m188.6 157.7c0 4.6 8.36 9 19.3 9 10.93 0 19.3-4.4 19.3-9" stroke="#12283C" stroke-miterlimit="10" stroke-width="2.5"/>
  <path d="m188.6 168.7c0 4.6 8.36 8.5 19.3 8.5 10.93 0 19.3-3.9 19.3-8.5" stroke="#12283C" stroke-miterlimit="10" stroke-width="2.5"/>
  <path d="m6.12 86.72 17.5 13.5c5.6 2.8 12.3 2.6 17.2 0l8.5-4.4c2.5-1.3 4.8-1.5 7.6-0.9 5.7 1.5 10.4 0.2 15-2l4.3-2.3c2.6-1.6 3.7-3.6 2.4-6.9l-0.7-3 8.3-5.2c2.6-1.6 3.2-5.5 1.3-7.8l-0.7-4.7-0.6-9-2.6-4.3-17.5-9-1 2.5-4-4.5-17-0.5-28 5.5-8 5.5-2 3.5v34z" fill="#94A6B0" opacity=".3"/>
  <path d="m7.46 52.32v31.5l16.5 10c5.6 2.8 11.4 3 16.3 0.4l8.5-4.4c2.5-1.3 5.8-1.8 8.6-1.2 8.6 1.6 12.3 0 16.9-2.6l3.5-2.2 0.5-11.5 6-4c1.2-0.9 1-1.6 1-3.1v-10.5c0-2.7-1.6-4.6-4-5.7l-15-7.3-0.5-2-4.5 0.5-17-1.5-33 8.5c-2.4 1.1-3.8 2.8-3.8 5.1z" fill="url(#paint5_linear_114_276)" stroke="#12283C" stroke-miterlimit="10" stroke-width="2.5"/>
  <path d="m84.26 56.22-10.5 6.7c-2 1.5-2.1 4.3 0.2 5.8l2.3 1.6c1.4 1 1 3 0 3.9l-3 2.5c-4.1 3-7.5 3.1-13.5 2-5.1-1-10 0-14.5 2.5l-8 4.5c-3.6 1.6-7.8 1.5-11.3-0.4l-18.5-10.1v9l16.5 9c5.6 2.8 11.4 3 16.3 0.4l8.5-4.4c2.5-1.3 5.8-1.8 8.6-1.2 8.6 1.6 11.3 0.6 15.9-2l3-2.2c1.4-1 1-5.5 1-6.5v-4l6.5-4c1.3-0.9 1.5-2.1 1.5-3.6l-1-9.5z" fill="#A5785D" stroke="#12283C" stroke-miterlimit="10" stroke-width="2"/>
  <path d="m40.71 69.72c11.88 0 21.5-4.76 20-10v-31.5c0-5.4-8.62-9.5-20-9.5s-19.5 4.1-19.5 9.5v31.5c0 5.24 7.62 10 19.5 10z" fill="#CED7E2" stroke="#12283C" stroke-miterlimit="10" stroke-width="2.5"/>
  <path d="m40.71 36.22c10.94 0 20-4.01 20-8.5 0-4.5-9.06-9-20-9s-19 4.5-19 9c0 4.49 8.06 8.5 19 8.5z" fill="#E1E8EF" stroke="#12283C" stroke-miterlimit="10" stroke-width="2"/>
  <path d="m20.21 37.22c0 5 8.56 9 20 9s20-4 20-9" stroke="#12283C" stroke-miterlimit="10" stroke-width="2.5"/>
  <path d="m20.21 47.22c0 5 8.56 9.5 20 9.5s20-4.5 20-9.5" stroke="#12283C" stroke-miterlimit="10" stroke-width="2.5"/>
  <path d="m196.6 87.12-15.5-8.5v-11.5l-23.5-14-18.5 11-3 3-16.5 6.5-52.5 36.5c-8.5 5-14 12.5-14 21.5v6l14.5 19.5c2.5 2.5 2.5 5 2.5 7.5 6-3.5 11.5-4.5 18.5-4 9.5 1 19.5-2 25-5l75.5-40.5 7.5-12.5v-15.5z" fill="url(#paint6_linear_114_276)" stroke="#12283C" stroke-miterlimit="10" stroke-width="2.5"/>
  <path d="m56.11 136.2c14.5 3.5 27.5 2 53-4.5l-39-18.5c-9.5 4.5-15 11.5-14 23z" fill="#E1E8EF" stroke="#12283C" stroke-miterlimit="10" stroke-width="2"/>
  <path d="m76.11 114.7 36 18 82.5-43.5-14.5-7.5v13l-20.5 12.5-17.5-10-3 0.5-19.5 3.5-19-6-24.5 19.5z" fill="#CED7E2" stroke="#12283C" stroke-miterlimit="10" stroke-width="2"/>
  <path d="m193.6 101.7-6 10.5-73.5 41c-11 5.5-20.5 4.5-24.5 4-6.5-1-12.5 0.5-17.5 2.5l-5.5-9.5c14 1 29 0.5 43-5.5l84-43z" fill="url(#paint7_linear_114_276)"/>
  <path d="m177.1 110.2c2.33 0 3-2.5 3-3.5 0-1.5-1-2.5-2-2.5-2 0-3 2.5-3 3.5 0 1.5 1 2.5 2 2.5z" fill="#2874A6" stroke="#12283C" stroke-miterlimit="10" stroke-width="2"/>
  <path d="m80.61 148.2c2.48 0 3-1.81 3-2.5 0-1.5-1-2.5-2-2.5-2 0-3 1.5-3 2.5 0 1.5 1 2.5 2 2.5z" fill="#CED7E2" stroke="#12283C" stroke-miterlimit="10" stroke-width="2"/>
  <path d="m139.6 67.22 19.5 12 19.5-12-22-13-17 11v2z" fill="#F0F3F7" stroke="#12283C" stroke-miterlimit="10" stroke-width="2.5"/>
  <path d="m158.1 50.22v16" stroke="#12283C" stroke-linecap="round" stroke-linejoin="round" stroke-width="2.5"/>
  <path d="m142.1 70.22 17 9.5v27l-17-10v-26.5z" fill="#CED7E2" stroke="#12283C" stroke-miterlimit="10" stroke-width="2"/>
  <path d="m143.1 77.22 10.5 6v6.5l-10.5-6.5v-6z" fill="#4998BE" stroke="#12283C" stroke-miterlimit="10" stroke-width="2.5"/>
  <path d="m159.6 79.72 19-11.5v28l-19 11v-27.5z" fill="#F0F3F7" stroke="#12283C" stroke-miterlimit="10" stroke-width="2"/>
  <path d="m164.6 83.22 9-5.5v8.5l-9 4v-7z" fill="#4998BE" stroke="#12283C" stroke-miterlimit="10" stroke-width="2.5"/>
  <path d="m98.61 108.2c0 7 9.6 12 21 12s23-5 23-11v-35.5l-3.5-7.5-21-5-16 6-3.5 5v36z" fill="#48515A" opacity=".3"/>
  <path d="m121.1 118.2c11.88 0 20-4.76 20-9.5v-38c0-5.4-9.12-10-20-10-11.44 0-20 4.6-20 10v38c0 4.74 8.12 9.5 20 9.5z" fill="url(#paint8_linear_114_276)" stroke="#12283C" stroke-miterlimit="10" stroke-width="2.5"/>
  <path d="m121.1 79.72c11.44 0 19.5-4.5 19.5-9.5 0-4.5-9.06-9-19.5-9-11.44 0-19.5 4.5-19.5 9 0 5 8.06 9.5 19.5 9.5z" fill="#A3D7E8" stroke="#12283C" stroke-miterlimit="10" stroke-width="2"/>
  <path d="m101.1 77.22c0 5 8.56 9 20 9 10.94 0 19.5-4 19.5-9v8.5c0 4.5-9.06 8-19.5 8-11.44 0-20-3.5-20-8v-8.5z" fill="#77D0D8" stroke="#12283C" stroke-miterlimit="10" stroke-width="1.5"/>
  <path d="m101.1 87.22c0 5 8.56 9 20 9 10.94 0 19.5-4 19.5-9v8.5c0 5-9.06 8.5-19.5 8.5-11.44 0-20-3.5-20-8.5v-8.5z" fill="url(#paint9_linear_114_276)" stroke="#12283C" stroke-miterlimit="10" stroke-width="1.5"/>
  <path d="m101.1 98.22c0 5 8.56 9 20 9 10.94 0 19.5-4 19.5-9v8.5c0 5-9.06 8.5-19.5 8.5-11.44 0-20-3.5-20-8.5v-8.5z" fill="url(#paint10_linear_114_276)" stroke="#12283C" stroke-miterlimit="10" stroke-width="1.5"/>
  <path d="m134.6 109.7 0.5-0.5" stroke="#12283C" stroke-linecap="round" stroke-linejoin="round" stroke-width="2.5"/>
  <path d="m134.6 97.22 0.5-0.5" stroke="#12283C" stroke-linecap="round" stroke-linejoin="round" stroke-width="2.5"/>
  <path d="m134.6 85.22 0.5-0.5" stroke="#12283C" stroke-linecap="round" stroke-linejoin="round" stroke-width="2.5"/>
  <path d="m213.6 65.72 1-6-5.5-1 1 2-1.5 1.5 1 2 2-1 2 2.5z" fill="#B7F9E0"/>
  <path d="m223.6 76.72 1-6-5.5-1 1 2-1.5 1.5 1 2 2-1 2 2.5z" fill="#77E8D2"/>
  <path d="m47.61 191.2 2-6-5.5-1.5 1 2-2 1.5 1.5 2 2-1 1 3z" fill="#77E8D2"/>
  <path d="m42.61 148.2 2-5.5-5.5-1 1 2-20.5 11.5 1 2 19-11 3 2z" fill="#77E8D2"/>
  <path d="m58.11 161.2 1.5-6-5.5-1.5 1 2-19.5 2 1 2 18.5-4.5 3 6z" fill="#77E8D2"/>
  <path d="m27.11 171.7 28.5-15" stroke="#77E8D2" stroke-linecap="round" stroke-width="2.5"/>
  <path d="m29.61 161.7 0.5-0.5" stroke="#77E8D2" stroke-linecap="round" stroke-width="2.5"/>
  <path d="m19.61 174.7 0.5-0.5" stroke="#77E8D2" stroke-linecap="round" stroke-width="2.5"/>
  <path d="m140.1 44.91v-8.6h-3.15v-2.2h3v-1.4c0-2.7 1.15-3.7 3.65-3.7h1.2v2.3h-0.9c-1.3 0-1.5 0.7-1.5 1.7v1.1h2.3v2.2h-2.2v8.6h-3.4 1zm10.2 0.2c-4.1 0-5.3-2.6-5.3-5.7 0-3.4 1.8-5.5 5.2-5.5 3.2 0 4.8 1.9 4.8 4.9v1.1h-7.2c0.1 1.9 0.9 2.9 2.6 2.9 1.1 0 1.9-0.5 2.4-1.4l2.2 1.2c-1.1 1.7-2.7 2.5-4.7 2.5zm-2.4-6.8h4.7v-0.2c0-1.6-0.9-2.4-2.3-2.4-1.5 0-2.3 1-2.4 2.6zm9.4 6.6v-10.8h2.7v1.8c0.8-1.4 1.7-2 2.8-2 0.6 0 1.2 0.1 1.7 0.4l-0.9 2.4c-0.4-0.3-0.9-0.4-1.3-0.4-1.4 0-2.1 1.2-2.1 3.4v5.2h-2.9zm7.7 0v-10.8h2.7v1.8c0.8-1.4 1.7-2 2.8-2 0.6 0 1.2 0.1 1.7 0.4l-0.9 2.4c-0.4-0.3-0.9-0.4-1.3-0.4-1.4 0-2.1 1.2-2.1 3.4v5.2h-2.9zm8.4 3.8v-2.3h0.5c1.1 0 1.6-0.5 2.1-1.9l-4.2-10.4h3l2.5 7 2.6-7h2.9l-4.5 11.4c-1 2.5-2.2 3.3-4.3 3.3h-0.6v-0.1z" fill="#12283C"/>
  <defs>
    <linearGradient id="paint0_linear_114_276" x1="171.7" x2="244" y1="42.82" y2="107.3" gradientUnits="userSpaceOnUse">
      <stop stop-color="#49BFD0" offset="0"/>
      <stop stop-color="#209DAE" offset="1"/>
    </linearGradient>
    <linearGradient id="paint1_linear_114_276" x1="15.61" x2="67.61" y1="114.1" y2="208.6" gradientUnits="userSpaceOnUse">
      <stop stop-color="#286196" offset="0"/>
      <stop stop-color="#274A88" offset=".9219"/>
    </linearGradient>
    <linearGradient id="paint2_linear_114_276" x1="73.41" x2="129.1" y1="206.2" y2="206.2" gradientUnits="userSpaceOnUse">
      <stop stop-color="#54A7CC" offset="0"/>
      <stop stop-color="#58D795" offset="1"/>
    </linearGradient>
    <linearGradient id="paint3_linear_114_276" x1="185" x2="208.4" y1="134.7" y2="217.3" gradientUnits="userSpaceOnUse">
      <stop stop-color="#F0F3F7" offset="0"/>
      <stop stop-color="#95A4B0" offset="1"/>
    </linearGradient>
    <linearGradient id="paint4_linear_114_276" x1="188.6" x2="228.2" y1="161.7" y2="161.7" gradientUnits="userSpaceOnUse">
      <stop stop-color="#F0F3F7" offset="0"/>
      <stop stop-color="#95A4B0" offset=".99"/>
    </linearGradient>
    <linearGradient id="paint5_linear_114_276" x1="23.61" x2="46.11" y1="38.72" y2="91.22" gradientUnits="userSpaceOnUse">
      <stop stop-color="#F0F3F7" offset="0"/>
      <stop stop-color="#95A4B0" offset="1"/>
    </linearGradient>
    <linearGradient id="paint6_linear_114_276" x1="113.6" x2="113.6" y1="53.12" y2="164.6" gradientUnits="userSpaceOnUse">
      <stop stop-color="#39A9C1" offset="0"/>
      <stop stop-color="#39467A" offset="1"/>
    </linearGradient>
    <linearGradient id="paint7_linear_114_276" x1="66.61" x2="193.6" y1="130.2" y2="130.2" gradientUnits="userSpaceOnUse">
      <stop stop-color="#4988AA" offset="0"/>
      <stop stop-color="#496592" offset="1"/>
    </linearGradient>
    <linearGradient id="paint8_linear_114_276" x1="101.1" x2="141.1" y1="89.47" y2="89.47" gradientUnits="userSpaceOnUse">
      <stop stop-color="#F0F3F7" offset="0"/>
      <stop stop-color="#95A4B0" offset="1"/>
    </linearGradient>
    <linearGradient id="paint9_linear_114_276" x1="101.1" x2="140.6" y1="95.72" y2="95.72" gradientUnits="userSpaceOnUse">
      <stop stop-color="#93C8EA" offset="0"/>
      <stop stop-color="#33649A" offset="1"/>
    </linearGradient>
    <linearGradient id="paint10_linear_114_276" x1="101.1" x2="140.6" y1="106.7" y2="106.7" gradientUnits="userSpaceOnUse">
      <stop stop-color="#93C8EA" offset="0"/>
      <stop stop-color="#33649A" offset="1"/>
    </linearGradient>
  </defs>
</svg>
